<svg width="28" height="28" viewBox="0 0 28 28" fill="none" xmlns="http://www.w3.org/2000/svg">
<path d="M26.922 7.71072C26.9221 7.56776 26.894 7.4262 26.8393 7.2941C26.7847 7.16201 26.7045 7.04198 26.6035 6.94087C26.5024 6.83977 26.3824 6.75956 26.2504 6.70484C26.1183 6.65011 25.9767 6.62195 25.8338 6.62195H2.16464C2.02164 6.62188 1.88003 6.64999 1.7479 6.70468C1.61577 6.75937 1.49572 6.83957 1.3946 6.94068C1.29349 7.0418 1.21329 7.16185 1.1586 7.29398C1.10391 7.42611 1.0758 7.56772 1.07587 7.71072V23.7703C1.07587 24.2188 1.254 24.6488 1.57108 24.9659C1.88816 25.283 2.31822 25.4611 2.76664 25.4611H25.2313C25.6797 25.4611 26.1097 25.283 26.4268 24.9659C26.7439 24.6488 26.922 24.2188 26.922 23.7703V7.71072Z" stroke="white" stroke-width="2" stroke-miterlimit="10" stroke-linecap="round" stroke-linejoin="round"/>
<path d="M17.9362 6.62197H10.0623V3.51505C10.0623 2.97605 10.4989 2.53882 11.0385 2.53882H16.961C17.4995 2.53882 17.9373 2.97605 17.9373 3.51505V6.62197H17.9362Z" stroke="white" stroke-width="2" stroke-miterlimit="10" stroke-linecap="round" stroke-linejoin="round"/>
<path d="M22.6811 25.4595V10.2856M5.31567 25.4595V10.2856" stroke="white" stroke-width="2" stroke-miterlimit="10" stroke-linecap="round" stroke-linejoin="round"/>
<path d="M16.3003 12.461C21.9165 11.551 26.9242 7.71179 26.9242 7.71179M1.078 7.71179C1.078 7.71179 6.09108 11.551 11.6965 12.461" stroke="white" stroke-width="2" stroke-miterlimit="10" stroke-linecap="round" stroke-linejoin="round"/>
<path d="M16.3542 12.6603C16.3542 13.2833 15.2988 13.784 14.0011 13.784C12.698 13.784 11.6426 13.2833 11.6426 12.6603C11.6426 12.5768 11.6588 12.4998 11.6965 12.4228C11.928 11.9156 12.8703 11.5365 14.0011 11.5365C15.1265 11.5365 16.0688 11.9156 16.3003 12.4228C16.338 12.4998 16.3542 12.5768 16.3542 12.6603Z" stroke="white" stroke-width="2" stroke-miterlimit="10" stroke-linecap="round" stroke-linejoin="round"/>
</svg>
