<svg width="32" height="32" viewBox="0 0 32 32" fill="none" xmlns="http://www.w3.org/2000/svg">
<path d="M3.20002 26.3466H14.24C14.56 27.04 15.2534 27.4666 16 27.4666C16.7467 27.4666 17.4934 26.9866 17.76 26.3466H28.8C29.12 26.3466 29.3334 26.1333 29.3334 25.8133V6.39998C29.3334 6.07998 29.12 5.86665 28.8 5.86665H26.88V5.01331C26.88 4.69331 26.6667 4.47998 26.3467 4.47998H17.7067C17.0134 4.47998 16.4267 4.79998 16 5.33331C15.5734 4.79998 14.9867 4.47998 14.2934 4.47998H5.65335C5.33335 4.47998 5.12002 4.69331 5.12002 5.01331V5.86665H3.20002C2.88002 5.86665 2.66669 6.07998 2.66669 6.39998V25.8666C2.66669 26.1333 2.88002 26.3466 3.20002 26.3466ZM16.5334 6.82665C16.5334 6.13331 17.0667 5.54665 17.7067 5.54665H25.8134V22.56H17.7067C17.6 22.56 17.4934 22.6133 17.3867 22.6666L16.5334 23.3066V6.82665ZM6.18669 5.54665H14.2934C14.9334 5.54665 15.4667 6.13331 15.4667 6.82665V23.3066L14.6134 22.72C14.5067 22.6666 14.4 22.6133 14.2934 22.6133H6.18669V5.54665ZM3.73335 6.93331H5.12002V23.1466C5.12002 23.4666 5.33335 23.68 5.65335 23.68H14.1334L15.68 24.8C15.68 24.8 15.68 24.8 15.7334 24.8H15.7867H15.84C15.8934 24.8 15.9467 24.8 15.9467 24.8C16 24.8 16.0534 24.8 16.0534 24.8H16.1067H16.16C16.16 24.8 16.16 24.8 16.2134 24.8L17.76 23.68H26.24C26.56 23.68 26.7734 23.4666 26.7734 23.1466V6.93331H28.2667V25.3333H17.3867C17.12 25.3333 16.9067 25.4933 16.8534 25.76C16.7467 26.1866 16.3734 26.4533 15.9467 26.4533C15.52 26.4533 15.1467 26.1333 15.04 25.76C14.9867 25.4933 14.7734 25.3333 14.5067 25.3333H3.73335V6.93331Z" fill="white"/>
<path d="M24.2134 7.73328H18.1334V8.79994H24.2134V7.73328Z" fill="white"/>
<path d="M24.2134 10.72H18.1334V11.7866H24.2134V10.72Z" fill="white"/>
<path d="M24.2134 13.7067H18.1334V14.7733H24.2134V13.7067Z" fill="white"/>
<path d="M24.2134 16.6934H18.1334V17.76H24.2134V16.6934Z" fill="white"/>
<path d="M24.2134 19.6801H18.1334V20.7467H24.2134V19.6801Z" fill="white"/>
<path d="M13.8667 7.73328H7.78668V8.79994H13.8667V7.73328Z" fill="white"/>
<path d="M13.8667 10.72H7.78668V11.7866H13.8667V10.72Z" fill="white"/>
<path d="M13.8667 13.7067H7.78668V14.7733H13.8667V13.7067Z" fill="white"/>
<path d="M13.8667 16.6934H7.78668V17.76H13.8667V16.6934Z" fill="white"/>
<path d="M13.8667 19.6801H7.78668V20.7467H13.8667V19.6801Z" fill="white"/>
</svg>
