<svg width="45" height="45" viewBox="0 0 45 45" fill="none" xmlns="http://www.w3.org/2000/svg">
<path d="M22.5 44.5C34.7883 44.5 44.75 34.5383 44.75 22.25C44.75 9.96167 34.7883 0 22.5 0C10.2117 0 0.25 9.96167 0.25 22.25C0.25 34.5383 10.2117 44.5 22.5 44.5Z" fill="white"/>
<path d="M19.704 32.4082C19.0957 32.4093 18.5035 32.2126 18.0168 31.8479L17.9866 31.8253L11.6316 26.9673C11.3373 26.7418 11.0903 26.4606 10.9047 26.1397C10.7192 25.8189 10.5987 25.4646 10.5501 25.0972C10.5015 24.7298 10.5259 24.3564 10.6217 23.9984C10.7175 23.6404 10.883 23.3047 11.1086 23.0106C11.3343 22.7165 11.6157 22.4696 11.9368 22.2842C12.2579 22.0988 12.6124 21.9783 12.9801 21.9298C13.3477 21.8813 13.7214 21.9056 14.0797 22.0013C14.4379 22.0971 14.7738 22.2625 15.0681 22.4879L19.1844 25.6423L28.9113 12.9613C29.1368 12.6673 29.4181 12.4206 29.7391 12.2352C30.06 12.0499 30.4144 11.9295 30.7819 11.881C31.1494 11.8325 31.5229 11.8568 31.8811 11.9525C32.2392 12.0482 32.5749 12.2135 32.8691 12.4389L32.8699 12.4395L32.8096 12.5233L32.8716 12.4395C33.4651 12.8954 33.8534 13.5679 33.9513 14.3095C34.0492 15.0512 33.8487 15.8013 33.3937 16.3954L21.9528 31.3043C21.6881 31.6478 21.3478 31.9258 20.9582 32.1167C20.5687 32.3075 20.1404 32.4062 19.7065 32.4049L19.704 32.4082Z" fill="#D42E5B"/>
</svg>
