<svg width="29" height="29" viewBox="0 0 29 29" fill="none" xmlns="http://www.w3.org/2000/svg">
<g clip-path="url(#clip0_2339_898)">
<path d="M28.1542 6.95395L24.7346 0.604156L22.2454 3.09332L25.665 9.44312L28.1542 6.95395Z" fill="white"/>
<path d="M23.4054 11.7028L24.7769 10.3313L21.3573 3.98151L18.4331 6.90567L22.2635 9.0263L23.4054 11.7028Z" fill="white"/>
<path d="M14.0469 17.2731C16.1373 15.1827 16.0829 15.2914 16.0044 15.1947C15.0256 14.222 14.9833 14.1254 14.9048 14.222C12.8446 16.2762 12.8627 16.2097 12.9473 16.2943C13.9563 17.3033 13.9623 17.3577 14.0469 17.2731Z" fill="white"/>
<path d="M2.26562 26.9821C2.71451 27.4315 3.24757 27.788 3.83433 28.0312C4.42108 28.2745 5.05003 28.3997 5.6852 28.3997C6.32038 28.3997 6.94932 28.2745 7.53608 28.0312C8.12284 27.788 8.6559 27.4315 9.10479 26.9821L22.4871 13.5938C22.8798 13.2011 22.6925 13.0984 21.315 9.88419L17.3154 7.66086C17.2006 7.59772 17.0685 7.5736 16.9388 7.59212C16.8091 7.61065 16.689 7.67082 16.5965 7.76357C5.49187 18.8681 5.98729 18.6204 4.83333 18.8379C0.507496 19.8227 -0.223547 24.4929 2.26562 26.9821ZM9.66666 19.714C12.4458 16.9348 12.1921 17.2369 12.0833 17.1523C11.8471 16.9098 11.715 16.5846 11.715 16.2461C11.715 15.9075 11.8471 15.5824 12.0833 15.3398C13.9381 13.485 14.204 13.0077 14.9531 13.0077C15.1371 13.0089 15.3188 13.0487 15.4864 13.1247C15.654 13.2007 15.8037 13.3111 15.9258 13.4488C17.5812 11.7994 17.5571 11.745 17.8833 11.745C18.0033 11.7443 18.1208 11.7794 18.2208 11.8457C18.3208 11.9121 18.3988 12.0067 18.4448 12.1175C18.4908 12.2283 18.5028 12.3504 18.4792 12.468C18.4556 12.5857 18.3975 12.6936 18.3123 12.7781C16.5662 14.5242 16.7596 14.2825 16.8442 14.3671C17.0818 14.6089 17.2149 14.9343 17.2149 15.2734C17.2149 15.6124 17.0818 15.9378 16.8442 16.1796L14.9048 18.125C14.7775 18.248 14.6268 18.3441 14.4617 18.4078C14.2966 18.4715 14.1204 18.5014 13.9435 18.4958C13.7666 18.4901 13.5926 18.4491 13.4319 18.375C13.2712 18.301 13.1269 18.1954 13.0077 18.0646L10.5065 20.5417C10.391 20.616 10.2537 20.6489 10.1172 20.6348C9.9806 20.6207 9.85291 20.5605 9.75513 20.4641C9.65734 20.3677 9.5953 20.2409 9.57922 20.1046C9.56314 19.9682 9.59398 19.8305 9.66666 19.714ZM4.28958 22.1306C4.56747 21.8524 4.92164 21.6629 5.30728 21.586C5.69292 21.5091 6.09271 21.5483 6.45605 21.6987C6.8194 21.8491 7.12997 22.1039 7.34849 22.4308C7.56701 22.7577 7.68364 23.1421 7.68364 23.5353C7.68364 23.9286 7.56701 24.313 7.34849 24.6399C7.12997 24.9668 6.8194 25.2216 6.45605 25.372C6.09271 25.5223 5.69292 25.5616 5.30728 25.4847C4.92164 25.4078 4.56747 25.2182 4.28958 24.94C3.92446 24.5692 3.71881 24.0703 3.71656 23.5499C3.7143 23.0295 3.91561 22.5288 4.2775 22.1548L4.28958 22.1306Z" fill="white"/>
<path d="M6.23499 23.0128C6.08612 22.8831 5.8936 22.8148 5.69631 22.8216C5.49902 22.8284 5.31166 22.9098 5.17207 23.0494C5.03248 23.189 4.95107 23.3764 4.94426 23.5737C4.93746 23.7709 5.00577 23.9635 5.13541 24.1123C5.28428 24.242 5.47681 24.3103 5.6741 24.3035C5.87139 24.2967 6.05874 24.2153 6.19833 24.0757C6.33792 23.9361 6.41934 23.7487 6.42614 23.5514C6.43295 23.3542 6.36463 23.1616 6.23499 23.0128Z" fill="white"/>
</g>
<defs>
<clipPath id="clip0_2339_898">
<rect width="29" height="29" fill="white" transform="matrix(-1 0 0 -1 29 29)"/>
</clipPath>
</defs>
</svg>
