<svg width="51" height="51" viewBox="0 0 51 51" fill="none" xmlns="http://www.w3.org/2000/svg">
<path d="M31.2694 12.75C31.5243 12.7317 31.7766 12.8118 31.9742 12.9739C32.1719 13.136 32.2999 13.3677 32.3319 13.6213C33.0119 19.7838 30.94 24.0763 26.1481 26.2544L25.8612 26.3819C21.7175 28.1563 19.975 31.6944 20.5487 37.1238C20.5772 37.2588 20.577 37.3983 20.5482 37.5333C20.5195 37.6683 20.4628 37.7958 20.3817 37.9075C20.3007 38.0193 20.1971 38.1128 20.0778 38.182C19.9584 38.2513 19.8258 38.2948 19.6886 38.3097C19.5514 38.3246 19.4126 38.3106 19.2811 38.2686C19.1496 38.2266 19.0284 38.1576 18.9252 38.0658C18.8221 37.9741 18.7393 37.8618 18.6822 37.7362C18.6251 37.6105 18.595 37.4743 18.5937 37.3363C17.9137 31.1738 19.9856 26.8813 24.7775 24.7031L25.0644 24.5756C29.2081 22.8013 30.9506 19.2631 30.3769 13.8338C30.3585 13.5788 30.4387 13.3265 30.6007 13.1289C30.7628 12.9312 30.9945 12.8032 31.2481 12.7713L31.2694 12.75Z" fill="white"/>
<path d="M28.0288 27.0406C27.9448 27.1382 27.8809 27.2514 27.8408 27.3737C27.8007 27.496 27.7851 27.625 27.795 27.7533C27.8048 27.8817 27.84 28.0068 27.8983 28.1215C27.9567 28.2363 28.0371 28.3383 28.135 28.4219C29.5906 29.6863 30.3981 32.6719 30.3981 37.2619C30.3981 37.3903 30.4234 37.5174 30.4725 37.636C30.5217 37.7546 30.5937 37.8623 30.6844 37.9531C30.7752 38.0439 30.883 38.1159 31.0016 38.165C31.1202 38.2141 31.2473 38.2394 31.3756 38.2394C31.504 38.2394 31.6311 38.2141 31.7497 38.165C31.8683 38.1159 31.9761 38.0439 32.0668 37.9531C32.1576 37.8623 32.2296 37.7546 32.2787 37.636C32.3279 37.5174 32.3531 37.3903 32.3531 37.2619C32.3531 32.1088 31.4181 28.6663 29.41 26.9344C29.3138 26.8485 29.2013 26.7826 29.0792 26.7408C28.9572 26.699 28.8279 26.6821 28.6992 26.691C28.5705 26.6999 28.4449 26.7345 28.3297 26.7927C28.2146 26.851 28.1122 26.9316 28.0288 27.03V27.0406ZM18.6575 13.6213C17.9563 18.8594 19.0506 22.5038 22.0363 24.3738C22.2561 24.5147 22.5228 24.5625 22.7779 24.5067C23.0329 24.4509 23.2554 24.2961 23.3963 24.0763C23.5372 23.8565 23.585 23.5897 23.5292 23.3347C23.4734 23.0796 23.3186 22.8572 23.0988 22.7163C20.8781 21.3138 20.0069 18.4663 20.6125 13.8763C20.652 13.6198 20.5879 13.3582 20.4345 13.149C20.2811 12.9398 20.0508 12.8001 19.7944 12.7606C19.538 12.7212 19.2764 12.7852 19.0671 12.9387C18.8579 13.0921 18.7182 13.3223 18.6788 13.5788L18.6575 13.6213ZM28.4325 14.705C28.6773 14.7112 28.9108 14.809 29.0869 14.9791C29.263 15.1492 29.3688 15.3792 29.3835 15.6236C29.3982 15.8679 29.3207 16.1089 29.1662 16.2989C29.0117 16.4889 28.7916 16.6139 28.5494 16.6494H22.5675C22.3073 16.6494 22.0575 16.5468 21.8725 16.3637C21.6875 16.1807 21.5822 15.9321 21.5794 15.6719C21.5825 15.4314 21.6724 15.2 21.8325 15.0204C21.9925 14.8409 22.212 14.7251 22.4506 14.6944H28.4325V14.705Z" fill="white"/>
<path d="M28.4325 18.615C28.6917 18.5995 28.9465 18.6877 29.1408 18.86C29.3351 19.0324 29.4529 19.2748 29.4684 19.5341C29.4839 19.7933 29.3958 20.0481 29.2234 20.2424C29.0511 20.4367 28.8086 20.5545 28.5493 20.57H22.5675C22.3082 20.5855 22.0534 20.4974 21.8592 20.325C21.6649 20.1527 21.547 19.9102 21.5315 19.651C21.516 19.3917 21.6042 19.1369 21.7765 18.9427C21.9489 18.7484 22.1913 18.6305 22.4506 18.615H28.4325ZM28.4325 30.3663C28.5608 30.3586 28.6895 30.3763 28.811 30.4183C28.9325 30.4604 29.0446 30.5259 29.1408 30.6113C29.237 30.6966 29.3154 30.8001 29.3716 30.9157C29.4279 31.0314 29.4607 31.157 29.4684 31.2853C29.4761 31.4137 29.4584 31.5423 29.4164 31.6639C29.3743 31.7854 29.3088 31.8975 29.2234 31.9937C29.1381 32.0898 29.0346 32.1683 28.919 32.2245C28.8033 32.2807 28.6777 32.3136 28.5493 32.3213H22.5675C22.3227 32.3151 22.0892 32.2173 21.9131 32.0472C21.737 31.8771 21.6312 31.6471 21.6165 31.4027C21.6018 31.1584 21.6793 30.9174 21.8338 30.7274C21.9882 30.5374 22.2084 30.4124 22.4506 30.3769H28.4325V30.3663ZM28.4325 34.2869C28.6772 34.2931 28.9107 34.3909 29.0868 34.561C29.2629 34.7311 29.3688 34.9611 29.3835 35.2054C29.3982 35.4498 29.3206 35.6908 29.1662 35.8808C29.0117 36.0707 28.7916 36.1958 28.5493 36.2313H22.5675C22.3072 36.2313 22.0575 36.1286 21.8725 35.9456C21.6875 35.7626 21.5821 35.514 21.5793 35.2538C21.5825 35.0132 21.6724 34.7819 21.8324 34.6023C21.9925 34.4227 22.212 34.307 22.4506 34.2763H28.4325V34.2869Z" fill="white"/>
</svg>
