<svg width="25" height="25" viewBox="0 0 25 25" fill="none" xmlns="http://www.w3.org/2000/svg">
<g clip-path="url(#clip0_2300_384)">
<path d="M1.28427 13.8719L12.4085 4.15937L23.5327 13.8719C23.6886 14.005 23.8903 14.0709 24.094 14.0552C24.2978 14.0395 24.4872 13.9435 24.6211 13.788C24.7551 13.6325 24.8227 13.4301 24.8095 13.2246C24.7962 13.0192 24.703 12.8273 24.5502 12.6906L12.9172 2.53438C12.7762 2.41124 12.5959 2.34346 12.4093 2.34346C12.2226 2.34346 12.0423 2.41124 11.9013 2.53438L7.7553 6.15313V4.6875C7.7553 4.2731 7.59188 3.87567 7.301 3.58265C7.01012 3.28962 6.61561 3.125 6.20424 3.125C5.79287 3.125 5.39835 3.28962 5.10747 3.58265C4.81659 3.87567 4.65318 4.2731 4.65318 4.6875V8.86094L0.266778 12.6906C0.111657 12.8268 0.0164036 13.0193 0.00186871 13.2261C-0.0126662 13.4328 0.0547014 13.6369 0.189225 13.7937C0.471518 14.1187 0.960102 14.1547 1.28427 13.8719ZM9.30636 17.1875H15.5106V25H20.1638C20.5752 25 20.9697 24.8354 21.2606 24.5424C21.5514 24.2493 21.7148 23.8519 21.7148 23.4375V15.7797C21.7148 15.3109 21.507 14.8688 21.1472 14.5719L13.3919 8.16719C13.1148 7.93762 12.7672 7.8121 12.4085 7.8121C12.0498 7.8121 11.7022 7.93762 11.4251 8.16719L3.66981 14.5719C3.49212 14.7181 3.34898 14.9024 3.25079 15.1113C3.1526 15.3202 3.10181 15.5485 3.10212 15.7797V23.4375C3.10212 23.8519 3.26553 24.2493 3.55641 24.5424C3.84729 24.8354 4.24181 25 4.65318 25H9.30636V17.1875Z" fill="white"/>
</g>
<defs>
<clipPath id="clip0_2300_384">
<rect width="25" height="25" fill="white"/>
</clipPath>
</defs>
</svg>
