<svg width="274" height="79" viewBox="0 0 275 80" fill="none" xmlns="http://www.w3.org/2000/svg">
<path d="M64.49 27.87H82.97V17.25H64.49V12.13H85.53V1.02002H50V44.73H86.34V33.62H64.49V27.87Z" fill="black"/>
<path d="M134.28 36.99L124.97 28.68C122.26 32.09 119.08 33.8 115.41 33.8C112.33 33.8 109.85 32.81 107.98 30.83C106.11 28.85 105.17 26.2 105.17 22.87C105.17 19.54 106.11 16.89 107.98 14.91C109.85 12.93 112.33 11.94 115.41 11.94C119.07 11.94 122.26 13.65 124.97 17.06L134.28 8.75C132.11 5.92 129.37 3.75 126.04 2.25C122.71 0.75 118.92 0 114.67 0C110.05 0 105.88 0.969994 102.18 2.89999C98.47 4.83999 95.57 7.54002 93.47 11.02C91.37 14.5 90.32 18.44 90.32 22.86C90.32 27.28 91.37 31.22 93.47 34.7C95.57 38.18 98.48 40.88 102.18 42.82C105.89 44.76 110.05 45.72 114.67 45.72C118.92 45.72 122.71 44.97 126.04 43.47C129.37 41.97 132.12 39.81 134.28 36.97V36.99Z" fill="black"/>
<path d="M172.65 2.95001C168.9 0.990012 164.68 0.0100098 159.97 0.0100098C155.26 0.0100098 151.04 0.990012 147.29 2.95001C143.54 4.91001 140.61 7.62001 138.48 11.1C136.36 14.58 135.29 18.5 135.29 22.87C135.29 27.24 136.35 31.17 138.48 34.64C140.6 38.12 143.54 40.83 147.29 42.79C151.04 44.75 155.26 45.73 159.97 45.73C164.68 45.73 168.9 44.75 172.65 42.79C176.4 40.83 179.33 38.12 181.46 34.64C183.58 31.16 184.65 27.24 184.65 22.87C184.65 18.5 183.59 14.57 181.46 11.1C179.34 7.62001 176.4 4.91001 172.65 2.95001ZM168.47 28.65C167.6 30.3 166.42 31.56 164.94 32.46C163.46 33.36 161.81 33.8 159.97 33.8C158.13 33.8 156.48 33.35 155 32.46C153.52 31.57 152.35 30.3 151.47 28.65C150.6 27.01 150.16 25.08 150.16 22.87C150.16 20.66 150.6 18.74 151.47 17.09C152.34 15.45 153.52 14.18 155 13.28C156.48 12.39 158.13 11.94 159.97 11.94C161.81 11.94 163.46 12.39 164.94 13.28C166.42 14.18 167.59 15.45 168.47 17.09C169.34 18.74 169.78 20.66 169.78 22.87C169.78 25.08 169.34 27 168.47 28.65Z" fill="black"/>
<path d="M232.01 44.73L222.83 31.24C225.49 29.87 227.53 28.01 228.95 25.68C230.37 23.35 231.07 20.62 231.07 17.5C231.07 14.17 230.26 11.25 228.63 8.76001C227.01 6.26001 224.7 4.35001 221.7 3.01001C218.7 1.68001 215.18 1.01001 211.15 1.01001H190.1V44.73H204.84V33.74H208.84L216.27 44.73H232.01ZM214.71 21.28C213.71 22.18 212.21 22.62 210.21 22.62H204.84V12.38H210.21C212.21 12.38 213.71 12.83 214.71 13.72C215.71 14.62 216.21 15.87 216.21 17.5C216.21 19.13 215.71 20.38 214.71 21.28Z" fill="black"/>
<path d="M264.89 43.77C267.95 42.46 270.25 40.69 271.79 38.46C273.33 36.23 274.1 33.74 274.1 31C274.1 27.84 273.26 25.34 271.57 23.51C269.88 21.68 267.89 20.36 265.61 19.54C263.32 18.73 260.51 18.01 257.18 17.39C254.6 16.89 252.75 16.42 251.62 15.98C250.5 15.54 249.93 14.89 249.93 14.01C249.93 12.18 251.82 11.26 255.61 11.26C259.4 11.26 263.5 12.34 267.79 14.51L272.22 3.83002C270.01 2.58002 267.46 1.63002 264.57 0.990021C261.68 0.340021 258.73 0.0200195 255.73 0.0200195C251.36 0.0200195 247.64 0.669991 244.58 1.95999C241.52 3.24999 239.22 5.02002 237.68 7.27002C236.14 9.52002 235.37 12.02 235.37 14.76C235.37 17.92 236.2 20.43 237.87 22.29C239.53 24.14 241.49 25.48 243.74 26.29C245.99 27.1 248.8 27.86 252.17 28.57C254.79 29.11 256.68 29.61 257.82 30.07C258.96 30.53 259.54 31.22 259.54 32.13C259.54 32.92 259.1 33.51 258.23 33.91C257.36 34.31 255.9 34.5 253.86 34.5C251.49 34.5 249.01 34.14 246.43 33.41C243.85 32.68 241.52 31.71 239.44 30.51L234.69 41.25C236.9 42.62 239.72 43.72 243.15 44.53C246.59 45.34 250.11 45.75 253.74 45.75C258.11 45.75 261.83 45.09 264.89 43.78V43.77Z" fill="black"/>
<path d="M23.03 1.02002H0.039978V16.73C2.78998 13.87 7.46999 12.93 11.27 15.79L13.66 15.29C15.88 14.82 17.82 15.12 19.5 17.52C21.56 20.46 26.48 26.5 29.29 22.68C29.92 21.63 30.29 20.41 30.29 19.09C30.29 15.23 27.16 12.1 23.3 12.1V8.77002C30.38 8.77002 36.13 14.51 36.13 21.6C36.13 27.55 32.08 32.55 26.59 34C27.72 35.19 29.13 36.05 30.78 36.72C30.73 36.73 30.68 36.75 30.64 36.76C27.76 37.57 23.87 36.75 21.27 35.08C18.7 36.35 14.82 39.5 13.3 44.75H23.03C35.1 44.75 44.89 34.96 44.89 22.89C44.89 10.82 35.1 1.03 23.03 1.03V1.02002Z" fill="black"/>
<path d="M18.3 21.82C18.3 21.15 17.76 20.6 17.08 20.6C16.4 20.6 15.86 21.14 15.86 21.82C15.86 22.5 16.4 23.04 17.08 23.04C17.76 23.04 18.3 22.5 18.3 21.82Z" fill="black"/>
<path d="M6.53 71.98C6.77 71.83 6.97999 71.65 7.14999 71.4C7.41999 71 7.56 70.5 7.56 69.89C7.56 69.42 7.44998 68.95 7.22998 68.48C7.00998 68.02 6.66 67.63 6.19 67.32C5.71 67.01 5.08998 66.86 4.31998 66.86H0V77.66H4.78C5.51 77.66 6.11999 77.52 6.60999 77.24C7.08999 76.96 7.46 76.58 7.69 76.09C7.93 75.6 8.04999 75.03 8.04999 74.39C8.04999 73.79 7.87998 73.25 7.53998 72.76C7.28998 72.4 6.94999 72.14 6.51999 71.97L6.53 71.98ZM2.06998 68.77H4.28998C4.67998 68.77 4.97999 68.88 5.17999 69.11C5.38999 69.33 5.48999 69.61 5.48999 69.94C5.48999 70.21 5.43999 70.42 5.32999 70.59C5.21999 70.76 5.07999 70.88 4.89999 70.96C4.71999 71.04 4.51998 71.08 4.28998 71.08H2.06998V68.77ZM5.81998 75.07C5.69998 75.28 5.53 75.45 5.31 75.57C5.09 75.69 4.84999 75.75 4.57999 75.75H2.07999V72.99H4.57999C4.88999 72.99 5.16 73.05 5.37 73.17C5.58 73.29 5.74001 73.45 5.85001 73.65C5.96001 73.85 6.00998 74.08 6.00998 74.33C6.00998 74.62 5.94999 74.87 5.82999 75.08L5.81998 75.07Z" fill="black"/>
<path d="M18.28 74.06V66.86H16.21V77.66H18.28L22.98 70.46V77.66H25.05V66.86H22.98L18.28 74.06Z" fill="black"/>
<path d="M42.51 66.86H35.34C35.29 67.58 35.24 68.25 35.21 68.88C35.17 69.51 35.13 70.11 35.09 70.69C35.05 71.27 35.01 71.86 34.96 72.46C34.92 72.93 34.86 73.36 34.77 73.76C34.68 74.16 34.57 74.51 34.42 74.81C34.27 75.11 34.09 75.34 33.86 75.5C33.63 75.66 33.36 75.74 33.03 75.74V79.44H35.07V77.64H41.29V79.44H43.33V75.74H42.51V66.85V66.86ZM40.47 75.75H36.08C36.28 75.48 36.44 75.22 36.54 74.97C36.64 74.72 36.72 74.43 36.77 74.09C36.82 73.75 36.87 73.32 36.92 72.8C36.97 72.28 37.01 71.8 37.04 71.38C37.07 70.96 37.1 70.54 37.12 70.12C37.14 69.71 37.17 69.25 37.21 68.76H40.48V75.76L40.47 75.75Z" fill="black"/>
<path d="M53.63 74.06V66.86H51.56V77.66H53.63L58.32 70.46V77.66H60.39V66.86H58.32L53.63 74.06Z" fill="black"/>
<path d="M74.52 74.03L70.95 66.86H69.12V77.66H71.02V71.21L74.16 77.66H74.88L78.01 71.21V77.66H79.91V66.86H78.09L74.52 74.03Z" fill="black"/>
<path d="M91.21 66.86L87.91 77.66H90.01L90.69 75.41H94.76L95.45 77.66H97.55L94.25 66.86H91.21ZM91.27 73.5L92.71 68.77L94.17 73.5H91.27Z" fill="black"/>
<path d="M108.75 66.87C108.57 66.87 108.41 66.89 108.27 66.92C107.63 67.02 107.1 67.23 106.68 67.56C106.27 67.89 105.96 68.29 105.77 68.79C105.58 69.28 105.48 69.83 105.48 70.44C105.48 71.34 105.7 72.12 106.15 72.76C106.43 73.16 106.81 73.45 107.28 73.65L105.32 77.66H107.63L109.4 74H111.68V77.66H113.72V66.86H109.16C109.06 66.86 108.91 66.86 108.74 66.87H108.75ZM111.69 68.76V72.09H109.26C109.16 72.09 109.04 72.09 108.92 72.08C108.79 72.08 108.68 72.05 108.57 72.02C108.3 71.95 108.08 71.82 107.93 71.64C107.78 71.46 107.68 71.26 107.62 71.05C107.56 70.83 107.53 70.63 107.53 70.43C107.53 70.23 107.56 70.03 107.62 69.81C107.68 69.59 107.78 69.4 107.93 69.22C108.08 69.04 108.29 68.92 108.57 68.84C108.67 68.81 108.79 68.79 108.92 68.78C109.04 68.77 109.16 68.77 109.26 68.77H111.69V68.76Z" fill="black"/>
<path d="M135.7 69.01C136.16 68.71 136.73 68.55 137.41 68.55C138.16 68.55 138.77 68.73 139.25 69.09C139.73 69.45 140.06 69.96 140.26 70.62L142.31 70.05C141.96 69 141.37 68.17 140.53 67.55C139.69 66.94 138.65 66.63 137.41 66.63C136.33 66.63 135.4 66.87 134.62 67.33C133.84 67.79 133.24 68.46 132.81 69.3C132.39 70.14 132.18 71.13 132.18 72.25C132.18 73.37 132.39 74.35 132.81 75.2C133.23 76.04 133.83 76.7 134.62 77.17C135.4 77.64 136.33 77.87 137.41 77.87C138.65 77.87 139.69 77.56 140.53 76.95C141.37 76.34 141.97 75.5 142.31 74.45L140.26 73.88C140.06 74.53 139.72 75.04 139.25 75.4C138.78 75.77 138.16 75.95 137.41 75.95C136.72 75.95 136.15 75.8 135.7 75.49C135.25 75.18 134.9 74.75 134.67 74.2C134.44 73.65 134.33 72.99 134.33 72.24C134.33 71.49 134.44 70.84 134.67 70.28C134.9 69.73 135.24 69.3 135.7 68.99V69.01Z" fill="black"/>
<path d="M152.55 74.06V66.86H150.48V77.66H152.55L157.24 70.46V77.66H159.31V66.86H157.24L152.55 74.06Z" fill="black"/>
<path d="M169.47 68.17C169.44 68.72 169.4 69.32 169.34 69.99C169.29 70.66 169.22 71.33 169.13 72.03C169.05 72.72 168.95 73.38 168.83 74.01C168.75 74.4 168.67 74.73 168.59 75C168.51 75.26 168.41 75.47 168.29 75.61C168.18 75.76 168.04 75.86 167.88 75.91C167.72 75.96 167.53 75.98 167.3 75.97V77.66C167.89 77.77 168.38 77.79 168.77 77.7C169.16 77.62 169.48 77.44 169.73 77.18C169.98 76.92 170.18 76.58 170.33 76.17C170.48 75.76 170.61 75.28 170.71 74.75C170.83 74.2 170.92 73.63 171 73.05C171.08 72.47 171.15 71.9 171.2 71.36C171.25 70.82 171.3 70.32 171.33 69.87C171.36 69.42 171.39 69.06 171.41 68.78H174.86V77.67H176.9V66.87H169.54C169.52 67.2 169.5 67.63 169.47 68.18V68.17Z" fill="black"/>
<path d="M188.18 66.86L184.88 77.66H186.98L187.66 75.41H191.73L192.42 77.66H194.52L191.22 66.86H188.18ZM188.24 73.5L189.68 68.77L191.14 73.5H188.24Z" fill="black"/>
<path d="M220.25 67.34C219.47 66.87 218.54 66.64 217.46 66.64C216.38 66.64 215.45 66.88 214.67 67.34C213.89 67.8 213.29 68.47 212.86 69.31C212.44 70.15 212.23 71.14 212.23 72.26C212.23 73.38 212.44 74.36 212.86 75.21C213.28 76.05 213.88 76.71 214.67 77.18C215.45 77.65 216.38 77.88 217.46 77.88C218.54 77.88 219.47 77.65 220.25 77.18C221.03 76.71 221.63 76.05 222.06 75.21C222.48 74.37 222.69 73.38 222.69 72.26C222.69 71.14 222.48 70.16 222.06 69.31C221.64 68.47 221.03 67.81 220.25 67.34ZM220.19 74.22C219.96 74.78 219.62 75.21 219.17 75.52C218.72 75.83 218.15 75.97 217.46 75.96C216.77 75.95 216.21 75.79 215.75 75.49C215.29 75.19 214.95 74.76 214.73 74.21C214.51 73.66 214.39 73.01 214.39 72.26C214.39 71.51 214.5 70.86 214.73 70.3C214.96 69.74 215.3 69.31 215.75 69C216.2 68.7 216.77 68.55 217.46 68.56C218.14 68.57 218.71 68.73 219.17 69.03C219.63 69.33 219.97 69.76 220.19 70.31C220.41 70.86 220.53 71.51 220.53 72.26C220.53 73.01 220.42 73.66 220.19 74.22Z" fill="black"/>
<path d="M239.52 66.86H237.03L232.92 71.84V66.86H230.88V77.66H232.92V72.74L237.23 77.66H239.81L235.01 72.19L239.52 66.86Z" fill="black"/>
<path d="M254.52 71.3H249.69V66.86H247.65V77.66H249.69V73.21H254.52V77.66H256.56V66.86H254.52V71.3Z" fill="black"/>
<path d="M272.1 77.66H274.2L270.9 66.86H267.86L264.56 77.66H266.66L267.34 75.41H271.41L272.1 77.66ZM267.92 73.51L269.36 68.78L270.82 73.51H267.92Z" fill="black"/>
</svg>
