<svg width="51" height="51" viewBox="0 0 51 51" fill="none" xmlns="http://www.w3.org/2000/svg">
<path d="M24.65 17.8502V31.0983L20.1509 26.5993C20.0723 26.5189 19.9786 26.4549 19.8751 26.411C19.7716 26.3671 19.6604 26.3442 19.5479 26.3436C19.4355 26.343 19.3241 26.3647 19.2201 26.4074C19.1161 26.4502 19.0217 26.5131 18.9422 26.5926C18.8627 26.6721 18.7998 26.7666 18.757 26.8706C18.7143 26.9746 18.6926 27.086 18.6933 27.1984C18.6939 27.3108 18.7169 27.422 18.7608 27.5255C18.8047 27.629 18.8687 27.7228 18.949 27.8014L24.899 33.7514C25.0584 33.9107 25.2746 34.0002 25.5 34.0002C25.7254 34.0002 25.9415 33.9107 26.1009 33.7514L32.0509 27.8014C32.13 27.7225 32.1927 27.6288 32.2355 27.5257C32.2782 27.4225 32.3001 27.3119 32.3 27.2002C32.3 27.0321 32.2501 26.8678 32.1567 26.7281C32.0633 26.5883 31.9305 26.4794 31.7753 26.4151C31.62 26.3508 31.4491 26.3339 31.2842 26.3667C31.1194 26.3995 30.9679 26.4804 30.849 26.5993L26.35 31.0983V17.8502C26.35 17.6248 26.2604 17.4086 26.101 17.2492C25.9416 17.0898 25.7254 17.0002 25.5 17.0002C25.2746 17.0002 25.0584 17.0898 24.899 17.2492C24.7395 17.4086 24.65 17.6248 24.65 17.8502Z" fill="white"/>
<circle cx="25.5" cy="25.5" r="25" stroke="white"/>
</svg>
