<svg width="28" height="28" viewBox="0 0 28 28" fill="none" xmlns="http://www.w3.org/2000/svg">
<path fill-rule="evenodd" clip-rule="evenodd" d="M1.75 7.47255V20.5451C1.75 21.3326 2.275 22.0151 3.0625 22.2426L14.4375 25.2701C14.7175 25.3576 15.0325 25.3576 15.3125 25.2701L26.6875 22.2426C27.475 22.0151 28 21.3326 28 20.5451V7.47255C28 6.68505 27.475 6.00255 26.6875 5.77505L15.3125 2.73005C15.0232 2.67755 14.7268 2.67755 14.4375 2.73005L3.0625 5.77505C2.275 6.00255 1.75 6.68505 1.75 7.47255ZM14 23.3801L3.5 20.5976V8.75005L14 11.5676V23.3801ZM3.5 7.00005L7.875 5.82755L19.25 8.85505L14.875 10.0276L3.5 7.00005ZM26.25 20.5976L15.75 23.3801V11.5676L19.25 10.6051V14.8751L22.75 13.9476V9.67755L26.25 8.75005V20.5976ZM22.75 7.92755L11.375 4.90005L14.875 3.97255L26.25 7.00005L22.75 7.92755Z" fill="white"/>
</svg>
