<svg width="34" height="34" viewBox="0 0 34 34" fill="none" xmlns="http://www.w3.org/2000/svg">
<path d="M17 30.9541C16.505 30.9619 16.0165 30.8398 15.5833 30.6L15.1583 30.3591C11.848 28.4863 9.09396 25.7684 7.17751 22.483C5.26106 19.1977 4.25084 15.4626 4.25001 11.6591V11.4608C4.24552 10.9592 4.3743 10.4653 4.6232 10.0297C4.87211 9.59415 5.2322 9.23247 5.66667 8.98165L15.5833 3.39998C16.0141 3.1513 16.5027 3.02039 17 3.02039C17.4974 3.02039 17.986 3.1513 18.4167 3.39998L28.3333 8.98165C28.7678 9.23247 29.1279 9.59415 29.3768 10.0297C29.6257 10.4653 29.7545 10.9592 29.75 11.4608V11.6591C29.7463 15.4654 28.7318 19.2024 26.8103 22.488C24.8887 25.7736 22.129 28.4899 18.8133 30.3591L18.3883 30.6C17.9635 30.835 17.4855 30.957 17 30.9541ZM17 5.87915L7.08334 11.4608V11.6591C7.08572 14.9615 7.96592 18.2039 9.63377 21.0542C11.3016 23.9045 13.6972 26.2602 16.575 27.88L17 28.1208L17.425 27.88C20.3029 26.2602 22.6984 23.9045 24.3662 21.0542C26.0341 18.2039 26.9143 14.9615 26.9167 11.6591V11.4608L17 5.87915Z" fill="white"/>
</svg>
