<svg width="9" height="19" viewBox="0 0 9 19" fill="none" xmlns="http://www.w3.org/2000/svg">
<path d="M7.43247 0.615028C7.69172 0.599529 7.94651 0.687651 8.14078 0.860009C8.33506 1.03237 8.45291 1.27484 8.46841 1.53409C8.48391 1.79334 8.39578 2.04813 8.22343 2.2424C8.05107 2.43668 7.8086 2.55453 7.54935 2.57003H1.56747C1.30822 2.58553 1.05343 2.4974 0.859157 2.32505C0.664881 2.15269 0.547031 1.91022 0.531532 1.65097C0.516033 1.39172 0.604157 1.13693 0.776514 0.942652C0.948872 0.748376 1.19135 0.630527 1.45059 0.615028H7.43247ZM7.43247 12.3663C7.56084 12.3586 7.68946 12.3763 7.81099 12.4183C7.93252 12.4604 8.04459 12.5259 8.14078 12.6113C8.23698 12.6966 8.31542 12.8001 8.37164 12.9157C8.42785 13.0314 8.46073 13.157 8.46841 13.2853C8.47608 13.4137 8.4584 13.5423 8.41636 13.6639C8.37433 13.7854 8.30877 13.8975 8.22343 13.9937C8.13808 14.0898 8.03463 14.1683 7.91897 14.2245C7.80331 14.2807 7.67771 14.3136 7.54935 14.3213H1.56747C1.32272 14.3151 1.08921 14.2173 0.913115 14.0472C0.737017 13.8771 0.631157 13.6471 0.616467 13.4027C0.601777 13.1584 0.679327 12.9174 0.833783 12.7274C0.988238 12.5374 1.20835 12.4124 1.45059 12.3769H7.43247V12.3663ZM7.43247 16.2869C7.67722 16.2931 7.91073 16.3909 8.08683 16.561C8.26292 16.7311 8.36878 16.9611 8.38347 17.2054C8.39816 17.4498 8.32061 17.6908 8.16616 17.8808C8.0117 18.0707 7.79159 18.1958 7.54935 18.2313H1.56747C1.30723 18.2313 1.0575 18.1286 0.87249 17.9456C0.687483 17.7626 0.582143 17.514 0.579345 17.2538C0.582497 17.0132 0.672365 16.7819 0.832429 16.6023C0.992493 16.4227 1.212 16.307 1.45059 16.2763H7.43247V16.2869Z" fill="white"/>
</svg>
