<svg width="19" height="19" viewBox="0 0 19 19" fill="none" xmlns="http://www.w3.org/2000/svg">
<path d="M9.636 18.636C8.412 18.636 7.26 18.408 6.18 17.952C5.1 17.488 4.152 16.848 3.336 16.032C2.52 15.216 1.88 14.268 1.416 13.188C0.952 12.108 0.72 10.952 0.72 9.72C0.72 8.488 0.952 7.332 1.416 6.252C1.88 5.172 2.52 4.224 3.336 3.408C4.152 2.592 5.1 1.956 6.18 1.5C7.26 1.036 8.412 0.803999 9.636 0.803999C10.876 0.803999 12.032 1.036 13.104 1.5C14.184 1.956 15.132 2.592 15.948 3.408C16.764 4.224 17.404 5.172 17.868 6.252C18.332 7.332 18.564 8.488 18.564 9.72C18.564 10.952 18.332 12.108 17.868 13.188C17.404 14.268 16.764 15.216 15.948 16.032C15.132 16.848 14.184 17.488 13.104 17.952C12.032 18.408 10.876 18.636 9.636 18.636ZM9.744 14.772C9.016 14.772 8.364 14.648 7.788 14.4C7.212 14.152 6.708 13.756 6.276 13.212C5.86 12.684 5.572 12.116 5.412 11.508C5.26 10.9 5.184 10.292 5.184 9.684C5.192 9.06 5.276 8.448 5.436 7.848C5.604 7.248 5.884 6.7 6.276 6.204C6.708 5.668 7.216 5.272 7.8 5.016C8.384 4.76 9.056 4.632 9.816 4.632C10.248 4.632 10.656 4.68 11.04 4.776C11.424 4.864 11.804 5.02 12.18 5.244C12.564 5.484 12.904 5.784 13.2 6.144C13.496 6.504 13.708 6.92 13.836 7.392L12.36 7.836C12.264 7.588 12.128 7.348 11.952 7.116C11.776 6.884 11.572 6.684 11.34 6.516C11.116 6.356 10.864 6.24 10.584 6.168C10.312 6.088 10.036 6.048 9.756 6.048C9.292 6.048 8.868 6.144 8.484 6.336C8.1 6.52 7.772 6.78 7.5 7.116C7.228 7.468 7.04 7.872 6.936 8.328C6.832 8.776 6.78 9.224 6.78 9.672C6.78 10.16 6.836 10.632 6.948 11.088C7.068 11.544 7.252 11.94 7.5 12.276C7.756 12.628 8.076 12.896 8.46 13.08C8.852 13.264 9.284 13.356 9.756 13.356C10.38 13.356 10.916 13.204 11.364 12.9C11.596 12.732 11.788 12.544 11.94 12.336C12.092 12.128 12.22 11.896 12.324 11.64L13.836 12.048C13.66 12.504 13.436 12.9 13.164 13.236C12.892 13.572 12.608 13.844 12.312 14.052C11.952 14.292 11.564 14.472 11.148 14.592C10.74 14.712 10.272 14.772 9.744 14.772ZM9.636 16.92C10.636 16.92 11.568 16.736 12.432 16.368C13.296 15.992 14.056 15.476 14.712 14.82C15.376 14.156 15.892 13.388 16.26 12.516C16.636 11.636 16.824 10.7 16.824 9.708C16.824 8.708 16.636 7.776 16.26 6.912C15.892 6.048 15.376 5.288 14.712 4.632C14.056 3.968 13.296 3.452 12.432 3.084C11.568 2.708 10.636 2.52 9.636 2.52C8.644 2.52 7.708 2.708 6.828 3.084C5.956 3.452 5.188 3.968 4.524 4.632C3.868 5.288 3.352 6.048 2.976 6.912C2.608 7.776 2.424 8.708 2.424 9.708C2.424 10.7 2.608 11.636 2.976 12.516C3.352 13.388 3.868 14.156 4.524 14.82C5.188 15.476 5.956 15.992 6.828 16.368C7.708 16.736 8.644 16.92 9.636 16.92Z" fill="white"/>
</svg>
